<svg width="157" height="157" viewBox="0 0 157 157" fill="none" xmlns="http://www.w3.org/2000/svg">
<path d="M155.895 81.9965C155.895 122.782 122.832 155.845 82.0463 155.845C41.2606 155.845 8.19727 122.782 8.19727 81.9965C8.19727 41.2108 41.2606 8.14746 82.0463 8.14746C122.832 8.14746 155.895 41.2108 155.895 81.9965Z" stroke="#F8F5F5"/>
<path d="M148.849 74.349C148.849 115.411 115.562 148.698 74.5004 148.698C33.4385 148.698 0.151367 115.411 0.151367 74.349C0.151367 33.2872 33.4385 0 74.5004 0C115.562 0 148.849 33.2872 148.849 74.349Z" fill="#F8F5F5"/>
<path d="M104.265 53.1537C99.7629 48.5795 94.0657 45.4532 87.7895 44.1125C86.8107 43.9028 85.8286 44.3524 85.3467 45.2303L84.4712 46.8259C83.8745 47.9134 84.2736 49.2838 85.3612 49.8808L85.4881 49.9504L84.2711 52.8114C83.398 54.8648 84.2096 57.2213 86.1579 58.3023L83.7524 62.6859C83.4867 63.1701 83.6639 63.7778 84.1479 64.0437L77.1545 76.7877L73.6409 74.8594C71.2275 73.5367 68.1862 74.4229 66.8626 76.8348L60.1235 89.1153C59.9674 89.3998 59.9651 89.7266 60.0871 90.0019C58.5575 90.7726 57.2787 91.9819 56.4422 93.4999C56.39 93.5026 56.3382 93.5061 56.2869 93.5098C53.8131 93.6971 51.6594 95.1094 50.5413 97.2402C47.7027 97.8229 45.4669 100.083 45.0127 102.904C44.9662 103.193 45.0488 103.488 45.2388 103.711C45.4288 103.934 45.7072 104.063 46.0002 104.063H84.819C85.1067 104.063 85.3805 103.939 85.5704 103.723C85.7602 103.506 85.8479 103.219 85.8107 102.934C85.5391 100.846 84.3025 99.1013 82.5817 98.0768L87.9034 88.3808C89.2262 85.9678 88.34 82.9269 85.9276 81.6022L82.4145 79.6742L89.4084 66.9304C89.5609 67.0141 89.7257 67.0539 89.8884 67.0539C90.2415 67.0539 90.5839 66.8663 90.766 66.5348L93.1721 62.1504C93.8312 62.5084 94.5429 62.6806 95.2455 62.6806C96.6301 62.6806 97.979 62.0141 98.8175 60.7936L100.576 58.2303L100.703 58.2999H100.703C101.046 58.4879 101.416 58.5771 101.782 58.5771C102.577 58.5771 103.349 58.1549 103.758 57.4098L104.634 55.8143C105.115 54.9366 104.967 53.8674 104.265 53.1537ZM83.5297 102.063H47.3327C48.0266 100.503 49.5437 99.3576 51.3436 99.1334C51.6972 99.0894 52.0007 98.8606 52.1402 98.5327C52.8733 96.8098 54.5202 95.6493 56.4379 95.5041C56.6249 95.4899 56.822 95.4863 57.0247 95.4939C57.037 95.4943 57.0491 95.4946 57.0615 95.4946C57.4524 95.4946 57.809 95.2662 57.9717 94.9082C58.9596 92.7332 61.0904 91.2671 63.5324 91.0824C66.1322 90.8854 68.5704 92.1931 69.7444 94.4132C69.9592 94.8197 70.4234 95.0272 70.8702 94.9161C71.1599 94.8438 71.4525 94.7962 71.7395 94.7744C74.1984 94.5882 76.3655 96.1213 76.8952 98.4193C77.0152 98.9399 77.5224 99.2749 78.049 99.1784C78.2332 99.1448 78.4162 99.1211 78.5935 99.1078C80.7881 98.9418 82.7646 100.184 83.5297 102.063ZM80.7217 97.3093C80.04 97.1371 79.3209 97.0626 78.5824 97.1044C78.4326 96.7083 78.246 96.3334 78.0291 95.9808L78.7047 94.7482C78.9701 94.2639 78.7927 93.6562 78.3084 93.3907C77.8242 93.1251 77.2164 93.3027 76.9509 93.7871L76.6329 94.3672C76.122 93.9397 75.5474 93.5864 74.9255 93.3217L75.1981 92.8254C75.464 92.3413 75.2871 91.7334 74.8031 91.4676C74.319 91.2017 73.7112 91.3786 73.4452 91.8626L72.9287 92.8029C72.4917 92.7554 72.0439 92.7459 71.5886 92.7803C71.4365 92.7919 71.2836 92.8087 71.1306 92.8303C71.0416 92.6942 70.948 92.5618 70.8516 92.4319L71.6921 90.8998C71.9577 90.4156 71.7806 89.8078 71.2964 89.5422C70.8124 89.2766 70.2044 89.4539 69.9387 89.9379L69.3974 90.9249C68.8754 90.5068 68.3036 90.1527 67.6949 89.8688L68.1847 88.9763C68.4504 88.4922 68.2734 87.8843 67.7891 87.6186C67.3055 87.3533 66.6972 87.5299 66.4314 88.0142L65.7616 89.2344C64.9929 89.0799 64.1932 89.0269 63.3819 89.0882C63.0467 89.1136 62.7164 89.1586 62.3915 89.2204L62.3576 89.2019L67.6497 79.5571L85.184 89.1794L80.7217 97.3093ZM84.9652 83.3554C86.4114 84.1497 86.9427 85.9728 86.15 87.4192L86.1462 87.4261L68.6124 77.8038L68.6157 77.7976C69.4094 76.3513 71.2326 75.8204 72.6792 76.6131L84.9652 83.3554ZM80.6611 78.7121L78.9079 77.7499L85.9012 65.0059L87.6549 65.9683L80.6611 78.7121ZM89.4935 64.6958L85.9869 62.7713L87.9112 59.2648L91.418 61.1892L89.4935 64.6958ZM97.1686 59.6614C96.4851 60.6562 95.1724 60.9681 94.115 60.3873L87.1387 56.5598C86.0811 55.9794 85.6396 54.7044 86.1116 53.5942L87.2502 50.9174L98.814 57.2633L97.1686 59.6614ZM102.88 54.8521L102.005 56.4478C101.963 56.5228 101.901 56.5543 101.855 56.5674C101.81 56.5804 101.74 56.5877 101.665 56.5466L86.3236 48.1275C86.2027 48.0612 86.1584 47.9089 86.2247 47.788L87.1001 46.1925C87.1537 46.0949 87.2629 46.045 87.3717 46.0683C93.2642 47.327 98.6129 50.2622 102.839 54.5564C102.917 54.6358 102.934 54.7546 102.88 54.8521Z" fill="#005FAE"/>
<path d="M102.879 78.0117L100.833 77.2436C100.353 77.064 99.9575 76.5151 99.8008 75.8115L99.209 73.1572C99.1069 72.7002 98.7011 72.375 98.2329 72.375C97.7641 72.375 97.3589 72.7002 97.2569 73.1577L96.6655 75.8115C96.5083 76.5146 96.1127 77.064 95.6324 77.2441L93.5864 78.0117C93.1958 78.1577 92.9375 78.5308 92.9375 78.9478C92.9375 79.3647 93.1958 79.7378 93.5864 79.8838L95.6324 80.6519C96.1127 80.8315 96.5083 81.3809 96.6655 82.0835L97.2569 84.7378C97.3589 85.1953 97.7641 85.5205 98.2329 85.5205C98.7011 85.5205 99.1069 85.1954 99.209 84.7383L99.8008 82.0835C99.9575 81.3804 100.353 80.8315 100.833 80.6514L102.879 79.8838C103.27 79.7378 103.528 79.3647 103.528 78.9478C103.528 78.5308 103.27 78.1577 102.879 78.0117ZM98.2329 80.5635C97.8745 79.853 97.3458 79.2886 96.7075 78.9478C97.3458 78.6069 97.8745 78.0425 98.2329 77.332C98.5913 78.0425 99.1201 78.6069 99.7583 78.9478C99.1201 79.2891 98.5913 79.853 98.2329 80.5635Z" fill="#005FAE"/>
<path d="M53.7764 60.5039C53.2959 60.3233 52.9004 59.7744 52.7436 59.0718L52.1523 56.4175C52.0503 55.96 51.645 55.6348 51.1763 55.6348C50.708 55.6348 50.3022 55.96 50.2002 56.417L49.6084 59.0718C49.4517 59.7744 49.0561 60.3233 48.5757 60.5039L46.5298 61.2715C46.1392 61.4175 45.8809 61.791 45.8809 62.2075C45.8809 62.6245 46.1396 62.9975 46.5298 63.144L48.5757 63.9106C49.0561 64.0913 49.4517 64.6401 49.6084 65.3433L50.2002 67.9975C50.3022 68.4546 50.708 68.7798 51.1763 68.7798C51.645 68.7798 52.0503 68.4546 52.1523 67.9971L52.7436 65.3428C52.9004 64.6401 53.2959 64.0913 53.7764 63.9111L55.8222 63.144C56.2124 62.9975 56.4712 62.6245 56.4712 62.2075C56.4712 61.791 56.2129 61.4175 55.8222 61.2715L53.7764 60.5039ZM51.1758 63.8223C50.8179 63.1123 50.2895 62.5484 49.6509 62.2075C50.2895 61.8663 50.8179 61.3023 51.1763 60.5923C51.5342 61.3023 52.063 61.8663 52.7012 62.207C52.0625 62.5484 51.5342 63.1123 51.1758 63.8223Z" fill="#005FAE"/>
<path d="M73.2432 49.3584C72.7628 49.1777 72.3672 48.6289 72.2105 47.9263L71.6192 45.272C71.5172 44.8144 71.1119 44.4893 70.6432 44.4893C70.1748 44.4893 69.769 44.8144 69.667 45.2715L69.0753 47.9263C68.9185 48.6289 68.523 49.1777 68.0425 49.3584L65.9967 50.126C65.606 50.272 65.3477 50.645 65.3477 51.062C65.3477 51.479 65.606 51.852 65.9967 51.998L68.0425 52.7656C68.523 52.9463 68.9185 53.4951 69.0753 54.1982L69.667 56.8525C69.769 57.3096 70.1748 57.6347 70.6432 57.6347C71.1119 57.6347 71.5172 57.3096 71.6192 56.852L72.2105 54.1977C72.3673 53.4951 72.7628 52.9463 73.2432 52.7661L75.2895 51.9985C75.6802 51.852 75.9385 51.479 75.9385 51.062C75.9385 50.645 75.6802 50.272 75.2895 50.1255L73.2432 49.3584ZM70.6432 52.6772C70.2847 51.9673 69.7559 51.4033 69.1173 51.062C69.7559 50.7207 70.2847 50.1567 70.6432 49.4468C71.001 50.1567 71.5298 50.7207 72.1685 51.062C71.5298 51.4033 71.001 51.9673 70.6432 52.6772Z" fill="#005FAE"/>
</svg>
