<svg width="161" height="157" viewBox="0 0 161 157" fill="none" xmlns="http://www.w3.org/2000/svg">
<path d="M160.367 81.9965C160.367 122.782 127.304 155.845 86.5179 155.845C45.7323 155.845 12.6689 122.782 12.6689 81.9965C12.6689 41.2108 45.7323 8.14746 86.5179 8.14746C127.304 8.14746 160.367 41.2108 160.367 81.9965Z" stroke="#F8F5F5"/>
<path d="M148.698 74.349C148.698 115.411 115.411 148.698 74.349 148.698C33.2872 148.698 0 115.411 0 74.349C0 33.2872 33.2872 0 74.349 0C115.411 0 148.698 33.2872 148.698 74.349Z" fill="#F8F5F5"/>
<g clip-path="url(#clip0_737_245)">
<path d="M58.8282 99.4156C58.2657 99.4281 57.7282 99.2031 57.3407 98.7906C57.0782 98.5031 56.9407 98.1281 56.9907 97.7406C57.0407 97.3531 56.8907 96.9781 56.5782 96.7406C56.2657 96.5031 55.8532 96.4656 55.5032 96.6156C55.1532 96.7656 54.9032 97.1031 54.8657 97.4906C54.7532 98.4781 55.0782 99.4781 55.7407 100.216C56.5282 101.078 57.6407 101.566 58.8157 101.553C59.4032 101.553 59.8782 101.078 59.8782 100.491C59.8907 99.8906 59.4157 99.4156 58.8282 99.4156Z" fill="#005FAE"/>
<path d="M96.1285 69.6655L93.9285 64.9655C93.5035 64.0655 92.8285 63.303 91.9785 62.778L91.541 62.5155C91.116 62.253 90.6535 62.0655 90.166 61.9405L85.491 51.928C85.941 51.3155 86.016 50.503 85.6785 49.8155L82.541 43.053C82.3035 42.5405 81.866 42.1405 81.341 41.953C80.8035 41.7655 80.216 41.7905 79.7035 42.028L75.841 43.8155C75.691 43.8905 75.541 43.978 75.416 44.0905C73.1285 42.0155 69.5285 41.5655 66.566 41.9405C63.791 42.303 60.291 43.478 58.791 45.728C58.0285 46.8655 57.816 48.278 58.216 49.5905C58.7035 51.128 59.6535 52.478 60.941 53.4405C62.8035 54.9155 64.8035 56.2155 66.9035 57.3405C68.841 58.378 70.6785 59.5655 72.4035 60.9155C76.391 64.1905 78.916 68.278 79.3035 72.1155C79.7535 76.4905 77.441 79.9905 74.491 83.0905L74.391 82.228C74.141 80.1405 73.2785 78.178 71.891 76.5905V69.5405C71.891 66.003 69.0285 63.1405 65.491 63.1405H61.2285C57.691 63.1405 54.8285 66.003 54.8285 69.5405V76.6155C53.4535 78.1905 52.591 80.153 52.341 82.228L51.091 93.0155H48.4285C47.2535 93.0155 46.291 93.9655 46.291 95.153V103.691C46.291 104.866 47.241 105.828 48.4285 105.828H52.691C53.4785 105.828 54.2035 105.391 54.566 104.691C55.8535 105.441 57.3285 105.828 58.816 105.828H67.916C69.4035 105.828 70.866 105.441 72.1535 104.691C72.516 105.378 73.241 105.816 74.0285 105.828H78.291C79.466 105.828 80.4285 104.878 80.4285 103.691V95.153C80.4285 93.978 79.4785 93.0155 78.291 93.0155H75.641L74.8035 85.8155C78.4785 82.203 82.0285 77.753 81.416 71.903C80.9535 67.503 78.166 62.903 73.741 59.278C71.916 57.8655 69.9785 56.603 67.941 55.503C65.9535 54.4405 64.0535 53.203 62.291 51.8155C61.341 51.1155 60.641 50.153 60.2535 49.0405C60.0285 48.328 60.1285 47.5405 60.5535 46.928C61.591 45.378 64.4535 44.378 66.8285 44.0655C69.216 43.7655 72.341 44.103 74.091 45.8155L73.3785 46.153C72.3535 46.628 71.5535 47.503 71.1785 48.5655C70.8035 49.628 70.841 50.803 71.316 51.828L71.766 52.7905C72.241 53.8155 73.1035 54.6155 74.166 55.003C75.2285 55.3905 76.4035 55.3405 77.4285 54.853L78.666 54.278C78.966 54.4905 79.316 54.6155 79.6785 54.6405L84.3535 64.6655C84.141 65.1155 83.9785 65.5905 83.9035 66.0905L83.8285 66.5905C83.6785 67.578 83.816 68.5905 84.241 69.4905L86.441 74.1905C86.966 75.3155 88.1035 76.0405 89.341 76.0405M61.2285 65.278H65.491C67.8535 65.278 69.7535 67.1905 69.7535 69.5405V74.6905C65.8785 72.078 60.816 72.0905 56.9535 74.703V69.5405C56.9535 67.1905 58.866 65.278 61.2285 65.278ZM48.4285 103.678V95.1405H50.841L50.6285 96.9905C50.366 99.1905 51.0785 101.403 52.566 103.041C52.6035 103.091 52.6535 103.128 52.691 103.166V103.678H48.4285ZM58.8285 103.678C57.041 103.691 55.341 102.941 54.1535 101.628C53.0785 100.441 52.5535 98.8405 52.741 97.2405L54.4535 82.478C55.066 78.053 58.891 74.7905 63.366 74.878C67.8285 74.778 71.6535 78.053 72.266 82.478L73.9785 97.2405C74.166 98.8405 73.6535 100.441 72.566 101.628C72.4535 101.766 72.3285 101.878 72.191 102.003L72.1785 102.016C71.016 103.103 69.4785 103.703 67.891 103.691H58.8285V103.678ZM78.291 95.153V103.691H74.0285V103.191C74.0785 103.141 74.1285 103.091 74.1785 103.041C75.666 101.403 76.3785 99.1905 76.116 96.9905L75.9035 95.1405H78.291V95.153ZM85.866 62.8155L81.7535 54.003L83.691 53.103L87.8035 61.9155C87.4535 61.9905 87.116 62.103 86.791 62.253C86.4535 62.403 86.1535 62.5905 85.866 62.8155ZM80.6035 43.953L83.766 50.7155L79.9035 52.5155L76.741 45.753L80.6035 43.953ZM76.541 52.903C76.0285 53.1405 75.441 53.1655 74.9035 52.978C74.366 52.7905 73.941 52.3905 73.7035 51.8655L73.2535 50.903C72.7535 49.8405 73.216 48.5655 74.291 48.0655L75.2535 47.6155L77.5035 52.453L76.541 52.903ZM88.391 73.2655L86.191 68.5655C85.9535 68.0405 85.866 67.4655 85.9535 66.8905L86.0285 66.3905C86.1785 65.428 86.791 64.5905 87.6785 64.178C88.566 63.7655 89.591 63.828 90.4285 64.328L90.866 64.5905C91.3535 64.8905 91.7535 65.328 91.991 65.853L94.191 70.5655C94.441 71.103 94.2035 71.728 93.6785 71.978L89.816 73.778C89.5535 73.903 89.266 73.9155 89.0035 73.8155C88.741 73.7155 88.5035 73.528 88.391 73.2655Z" fill="#005FAE"/>
<path d="M63.3531 77.0156C59.8156 77.0156 56.9531 79.8781 56.9531 83.4156C56.9531 86.9531 59.8156 89.8156 63.3531 89.8156C66.8906 89.8156 69.7531 86.9531 69.7531 83.4156C69.7531 79.8781 66.8906 77.0156 63.3531 77.0156ZM63.3531 87.6781C61.2031 87.6781 59.3906 86.0906 59.1281 83.9531C58.8531 81.8281 60.2156 79.8281 62.2906 79.2906V82.3406C62.2906 82.9281 62.7656 83.4031 63.3531 83.4031C63.9406 83.4031 64.4156 82.9281 64.4156 82.3406V79.2906C66.4906 79.8281 67.8531 81.8281 67.5781 83.9531C67.3156 86.0906 65.5031 87.6906 63.3531 87.6781Z" fill="#005FAE"/>
<path d="M93.5285 69.1408L94.2285 70.6658C94.2285 70.6658 94.5785 71.6033 93.566 72.0408L89.7285 73.8158L91.7035 75.2533L93.8535 74.2533L95.6535 73.0908C95.6535 73.0908 97.0785 71.7158 96.1285 69.6658L95.041 67.3408L93.5285 69.1408Z" fill="#005FAE"/>
<path d="M89.7285 73.8154L89.3535 76.0279L91.7035 75.2529L89.7285 73.8154Z" fill="#005FAE"/>
<path d="M91.3936 77.5752L90.2686 84.6252" stroke="#005FAE" stroke-width="1.21564" stroke-miterlimit="10" stroke-linecap="round"/>
<path d="M90.0277 86.1562L89.5527 89.1063" stroke="#005FAE" stroke-width="1.21564" stroke-miterlimit="10" stroke-linecap="round"/>
<path d="M92.9863 76.6631L96.2988 85.6256" stroke="#005FAE" stroke-width="1.21564" stroke-miterlimit="10" stroke-linecap="round"/>
<path d="M97.0615 87.2285L98.399 90.841" stroke="#005FAE" stroke-width="1.21564" stroke-miterlimit="10" stroke-linecap="round"/>
<path d="M94.5586 76.145L100.159 82.7075" stroke="#005FAE" stroke-width="1.21564" stroke-miterlimit="10" stroke-linecap="round"/>
<path d="M101.353 84.0107L103.315 86.3107" stroke="#005FAE" stroke-width="1.21564" stroke-miterlimit="10" stroke-linecap="round"/>
</g>
<defs>
<clipPath id="clip0_737_245">
<rect width="64" height="64" fill="white" transform="translate(42 42)"/>
</clipPath>
</defs>
</svg>
