<svg width="158" height="157" viewBox="0 0 158 157" fill="none" xmlns="http://www.w3.org/2000/svg">
<path d="M156.717 82.3993C156.717 123.185 123.653 156.248 82.8676 156.248C42.0819 156.248 9.01855 123.185 9.01855 82.3993C9.01855 41.6136 42.0819 8.55029 82.8676 8.55029C123.653 8.55029 156.717 41.6136 156.717 82.3993Z" stroke="#F8F5F5"/>
<path d="M148.698 74.349C148.698 115.411 115.411 148.698 74.349 148.698C33.2872 148.698 0 115.411 0 74.349C0 33.2872 33.2872 0 74.349 0C115.411 0 148.698 33.2872 148.698 74.349Z" fill="#F8F5F5"/>
<g clip-path="url(#clip0_631_219)">
<mask id="mask0_631_219" style="mask-type:luminance" maskUnits="userSpaceOnUse" x="42" y="47" width="64" height="64">
<path d="M106 47H42V111H106V47Z" fill="white"/>
</mask>
<g mask="url(#mask0_631_219)">
<path d="M85.5017 71.4753C85.4745 69.2254 83.6337 67.3936 81.4111 67.3936C81.0284 67.3936 80.6634 67.4471 80.3166 67.5448V66.6201C80.3166 65.4903 79.8546 64.4231 79.0099 63.6319C78.2005 62.8673 77.1331 62.4398 76.0217 62.4398C75.5326 62.4398 75.0611 62.5199 74.6255 62.6712C74.4382 61.9242 74.0562 61.2396 73.5046 60.6879C72.6864 59.8697 71.5926 59.4165 70.4276 59.4165C68.0529 59.4165 66.052 61.3821 66.052 63.7032V64.3702C64.9495 64.0499 63.7397 64.1829 62.7172 64.7704C61.3745 65.5528 60.5827 66.9132 60.5827 68.4072V68.4256V83.4459C58.075 81.1248 54.5001 80.2442 51.1653 81.2049C49.9202 81.5604 48.9683 82.6101 48.7376 83.8816C48.4974 85.1707 49.0043 86.4958 50.0268 87.2611L54.0556 90.2933C54.0645 90.3021 54.0821 90.3109 54.0909 90.3198C54.0997 90.3293 54.1086 90.3293 54.1181 90.3381C55.0245 90.9514 55.6826 91.8321 55.9852 92.8369C56.6787 95.7626 58.5642 98.3239 61.152 99.8627C61.9702 100.351 62.4771 101.258 62.4771 102.254V104.176C62.4771 105.012 63.1529 105.688 63.9887 105.688C64.8254 105.688 65.5011 105.012 65.5011 104.176V102.254C65.5011 100.209 64.425 98.2974 62.6907 97.2654C60.7876 96.1364 59.409 94.2509 58.9109 92.0899C58.9109 92.0723 58.9021 92.0634 58.9021 92.0452C58.9021 92.0276 58.8932 92.0187 58.8932 92.0011C58.8845 91.9834 58.8845 91.9651 58.8756 91.9474V91.9387C58.3776 90.3021 57.3104 88.8617 55.8611 87.8657L51.841 84.8416C51.7345 84.7616 51.6721 84.5838 51.7074 84.4237C51.7345 84.2818 51.8587 84.1482 52.0012 84.1041C54.5712 83.3571 57.3551 84.2018 59.0887 86.2379C59.5867 86.8248 60.3161 87.1451 61.0542 87.1451C61.3481 87.1451 61.65 87.0922 61.9437 86.9849C62.9575 86.6118 63.6067 85.6687 63.6067 84.5749V68.4161V68.4072V68.3983C63.598 67.9892 63.8381 67.6072 64.2377 67.3759C64.6205 67.1533 65.092 67.1533 65.4651 67.3759C65.8302 67.5889 66.052 67.9892 66.0432 68.4432V79.5059C66.0432 80.3418 66.719 81.0177 67.5549 81.0177C68.3915 81.0177 69.0672 80.3418 69.0672 79.5059V63.6944C69.0672 63.0268 69.6982 62.4311 70.4189 62.4311C70.7744 62.4311 71.1034 62.5647 71.3524 62.8137C71.5837 63.0451 71.7175 63.3558 71.7175 63.6849V79.4972C71.7175 80.3331 72.3932 81.0088 73.2291 81.0088C74.065 81.0088 74.7409 80.3331 74.7409 79.4972V66.6913V66.6824C74.7672 65.9972 75.3277 65.4639 76.0122 65.4639C76.3509 65.4639 76.6792 65.5969 76.9282 65.8282C77.0619 65.9531 77.2845 66.2286 77.2845 66.6201V79.5059C77.2845 80.3418 77.9602 81.0177 78.7961 81.0177C79.6321 81.0177 80.3079 80.3418 80.3079 79.5059V71.5024C80.3166 70.9061 80.8059 70.4264 81.4016 70.4264C81.9796 70.4264 82.46 70.9156 82.4689 71.5201V93.8859C82.4689 95.4872 81.7395 96.9276 80.4591 97.8436C78.9386 98.9373 78.0315 100.689 78.0315 102.531V104.176C78.0315 105.012 78.7072 105.688 79.5431 105.688C80.3791 105.688 81.0549 105.012 81.0549 104.176V102.531C81.0549 101.659 81.4905 100.823 82.2199 100.298C84.2655 98.8307 85.4929 96.4296 85.4929 93.8859V71.4937V71.4842C85.5017 71.4753 85.5017 71.4753 85.5017 71.4753Z" fill="#005FAE"/>
<path d="M93.9502 89.7512C93.6124 89.0394 93.2921 88.3637 93.0431 87.6703C92.634 86.5229 92.3314 84.7976 93.2297 83.0457C94.3859 80.8047 95.5861 78.0921 95.6397 75.0598C95.6934 72.3737 95.0529 69.4392 93.799 66.5841C91.3714 61.0619 86.6402 56.5262 80.833 54.1521C77.4711 52.7734 73.8696 52.2395 70.1434 52.5509C68.7559 52.6669 67.3684 52.8711 66.0345 53.0665C63.9535 53.3692 61.9879 53.6541 59.9959 53.6541C59.1246 53.6541 58.2264 53.6358 57.3551 53.627C55.336 53.5917 53.2462 53.5646 51.1653 53.6982C45.2868 54.0897 43.6775 56.7399 43.366 58.8921C43.1347 60.4838 43.4549 62.0219 43.7392 63.3831C43.8193 63.7744 43.8993 64.1477 43.9618 64.5216C44.282 66.3439 44.5045 68.1582 44.6199 69.9196C44.7088 71.2888 44.6647 72.2496 44.4421 73.2367C44.2644 74.0543 44.0154 74.8638 43.7575 75.7268C43.6327 76.1264 43.5085 76.5356 43.3925 76.9536C43.2772 77.3714 43.1435 77.7894 43.0017 78.2346C42.6102 79.4707 42.2099 80.7511 42.0762 82.1297C41.756 85.4197 42.5037 88.5862 43.2236 91.6449C43.2772 91.8498 43.3213 92.0636 43.3749 92.2677C43.3925 92.4191 43.4101 92.5703 43.4285 92.7209C43.5703 93.9843 43.7127 95.2911 44.1667 96.5721C44.6552 97.9413 45.4646 99.0086 46.5054 99.6667C47.8034 100.485 49.2798 100.752 50.7562 100.752C52.295 100.752 53.8508 100.467 55.2295 100.209C55.5939 100.138 55.9405 100.076 56.2791 100.022C57.1061 99.8804 57.6571 99.1063 57.5146 98.2792C57.3729 97.4521 56.5986 96.9012 55.7716 97.0437C55.416 97.1054 55.0605 97.1678 54.6779 97.2391C52.4904 97.6482 49.7601 98.1462 48.1148 97.1142C47.6527 96.8299 47.2613 96.2783 47.0123 95.5672C46.6744 94.6153 46.5583 93.5392 46.4254 92.3919C46.4077 92.2053 46.3806 92.0187 46.3629 91.8409C46.3541 91.7873 46.3453 91.7249 46.3365 91.6721C46.2829 91.4318 46.2205 91.1917 46.1675 90.9603C45.5006 88.1412 44.8153 85.2243 45.0914 82.4317C45.198 81.3651 45.5359 80.2889 45.8914 79.1504C46.0339 78.7053 46.1763 78.2433 46.3093 77.7806C46.4165 77.3898 46.5407 76.9894 46.6567 76.5979C46.9234 75.7268 47.19 74.8197 47.3942 73.8853C47.7416 72.2937 47.7145 70.8884 47.6344 69.7147C47.5103 67.8474 47.2789 65.9259 46.941 63.9963C46.8698 63.5784 46.7809 63.1693 46.7008 62.7602C46.443 61.5328 46.2028 60.3773 46.3629 59.31C46.5855 57.78 48.2661 56.9088 51.3695 56.7039C53.3263 56.5798 55.3536 56.6062 57.3104 56.6422C58.1911 56.6598 59.0982 56.6687 59.9959 56.6687C62.2105 56.6687 64.3715 56.3484 66.47 56.0458C67.7599 55.8592 69.0937 55.6638 70.4012 55.5478C73.6471 55.2723 76.7689 55.7351 79.6857 56.9353C84.7811 59.0162 88.9166 62.9738 91.0327 67.7851C92.1184 70.2392 92.6605 72.7292 92.6164 74.9886C92.5716 77.4074 91.5402 79.7109 90.5442 81.6493C89.4499 83.7656 89.3257 86.2651 90.1969 88.6839C90.4995 89.5111 90.8639 90.2846 91.22 91.0316C91.3714 91.3429 91.5131 91.6449 91.6469 91.9474C92.0111 92.7569 92.5091 93.8594 92.3137 94.5176C92.2601 94.7042 91.9847 95.0692 90.8021 95.4071C89.6547 95.7362 88.4634 95.9228 87.2712 95.9492C86.4354 95.9676 85.7771 96.6609 85.7949 97.4968C85.8131 98.3328 86.5066 98.9909 87.3425 98.9733C88.8012 98.9462 90.2505 98.7243 91.6556 98.3152C92.385 98.1014 94.5989 97.4616 95.2217 95.3799C95.7375 93.6369 94.9727 91.9387 94.4124 90.7024C94.2522 90.3822 94.1009 90.0619 93.9502 89.7512Z" fill="#005FAE"/>
<path d="M89.3789 57.389H104.755C105.439 57.389 106 56.8286 106 56.144C106 55.4587 105.439 54.8989 104.755 54.8989H89.3789C88.6935 54.8989 88.1338 55.4587 88.1338 56.144C88.1338 56.8286 88.6935 57.389 89.3789 57.389Z" fill="#005FAE"/>
<path d="M104.755 69.5547H98.0057C97.3205 69.5547 96.7607 70.1151 96.7607 70.7997C96.7607 71.4843 97.3205 72.0447 98.0057 72.0447H104.755C105.44 72.0447 106 71.4843 106 70.7997C106 70.1151 105.44 69.5547 104.755 69.5547Z" fill="#005FAE"/>
<path d="M104.755 84.1841H95.2841C94.5988 84.1841 94.0391 84.7438 94.0391 85.4291C94.0391 86.1137 94.5988 86.6741 95.2841 86.6741H104.755C105.44 86.6741 106 86.1137 106 85.4291C106 84.7438 105.44 84.1841 104.755 84.1841Z" fill="#005FAE"/>
</g>
</g>
<defs>
<clipPath id="clip0_631_219">
<rect width="64" height="64" fill="white" transform="translate(42 47)"/>
</clipPath>
</defs>
</svg>
