<svg width="161" height="157" viewBox="0 0 161 157" fill="none" xmlns="http://www.w3.org/2000/svg">
<path d="M160.367 81.9965C160.367 122.782 127.304 155.845 86.5179 155.845C45.7323 155.845 12.6689 122.782 12.6689 81.9965C12.6689 41.2108 45.7323 8.14746 86.5179 8.14746C127.304 8.14746 160.367 41.2108 160.367 81.9965Z" stroke="#F8F5F5"/>
<path d="M148.698 74.349C148.698 115.411 115.411 148.698 74.349 148.698C33.2872 148.698 0 115.411 0 74.349C0 33.2872 33.2872 0 74.349 0C115.411 0 148.698 33.2872 148.698 74.349Z" fill="#F8F5F5"/>
<path d="M98.5032 91.2584C98.0559 90.8096 97.4291 90.5299 96.7451 90.5303C96.061 90.5299 95.4347 90.8096 94.987 91.2584C94.5381 91.7062 94.2584 92.3325 94.2588 93.0169C94.2584 93.7014 94.5381 94.3277 94.9873 94.7751C95.435 95.2239 96.0614 95.5032 96.7455 95.5029C97.4299 95.5032 98.0559 95.2235 98.5036 94.7751C98.9524 94.3274 99.2325 93.701 99.2321 93.0169C99.2317 92.3325 98.952 91.7062 98.5032 91.2584ZM97.4659 93.7378C97.2792 93.9234 97.0289 94.0359 96.7447 94.0362C96.4609 94.0359 96.2106 93.9234 96.0239 93.7378C95.8383 93.551 95.7258 93.3011 95.7254 93.0169C95.7258 92.7328 95.8383 92.4828 96.0239 92.2958C96.2106 92.1101 96.4609 91.9976 96.7447 91.9973C97.0289 91.9976 97.2788 92.1101 97.4659 92.2958C97.6515 92.4825 97.764 92.7328 97.7647 93.0169C97.764 93.3007 97.6515 93.551 97.4659 93.7378Z" fill="#005FAE"/>
<path d="M74.1383 91.2584C73.6906 90.8096 73.0643 90.5299 72.3802 90.5303C71.6958 90.5299 71.0694 90.8096 70.6221 91.2584C70.1733 91.7062 69.8932 92.3325 69.8936 93.0169C69.8932 93.7014 70.1729 94.3277 70.6221 94.7751C71.0698 95.2239 71.6962 95.5032 72.3802 95.5029C73.0643 95.5032 73.6906 95.2235 74.1383 94.7747C74.5872 94.327 74.8669 93.701 74.8665 93.0166C74.8669 92.3325 74.5872 91.7062 74.1383 91.2584ZM73.101 93.7378C72.9143 93.923 72.6644 94.0359 72.3802 94.0362C72.0961 94.0359 71.8458 93.9234 71.6594 93.7378C71.4738 93.551 71.3613 93.3011 71.3609 93.0169C71.3613 92.7328 71.4738 92.4828 71.6594 92.2958C71.8461 92.1101 72.0964 91.9976 72.3802 91.9973C72.664 91.9976 72.9143 92.1101 73.101 92.2958C73.2867 92.4825 73.3991 92.7328 73.3995 93.0169C73.3991 93.3007 73.2867 93.551 73.101 93.7378Z" fill="#005FAE"/>
<path d="M82.8636 86.1837H91.913C92.2298 86.1837 92.5092 85.9819 92.6092 85.6812C92.7088 85.3806 92.6055 85.0516 92.3515 84.8619C92.3331 84.8487 91.1422 83.9595 89.4833 83.0608C88.6533 82.6116 87.706 82.1591 86.7202 81.8143C85.7336 81.4703 84.7088 81.2295 83.7046 81.228C83.376 81.228 83.0496 81.2545 82.7287 81.3144C82.3824 81.3791 82.1299 81.6835 82.1299 82.0356V85.4497C82.1299 85.643 82.2082 85.8316 82.3446 85.9683C82.4813 86.1054 82.6702 86.1837 82.8636 86.1837ZM83.5973 82.7002C83.6336 82.6991 83.6682 82.6958 83.705 82.6958C84.468 82.6947 85.3524 82.8895 86.2365 83.1997C87.3782 83.5982 88.5154 84.1815 89.4348 84.7167H83.5973V82.7002Z" fill="#005FAE"/>
<path d="M70.2645 86.1838H79.3139C79.5073 86.1838 79.6962 86.1055 79.8326 85.9688C79.9693 85.8321 80.0473 85.6435 80.0473 85.4501V82.0361C80.0473 81.6839 79.7944 81.3796 79.4485 81.3149C79.1276 81.255 78.8012 81.2285 78.4726 81.2285C77.4683 81.23 76.4432 81.4707 75.4566 81.8148C73.9785 82.3327 72.5843 83.0903 71.5481 83.72C70.513 84.3496 69.8389 84.8525 69.8253 84.8624C69.5713 85.0517 69.468 85.381 69.568 85.6817C69.6683 85.982 69.9477 86.1838 70.2645 86.1838ZM73.4658 84.3118C74.2399 83.896 75.1118 83.4862 75.9822 83.1855C76.8523 82.8837 77.7212 82.6948 78.4726 82.6959C78.5093 82.6959 78.5439 82.6996 78.5802 82.7003V84.7168H72.7427C72.9718 84.5834 73.2129 84.4474 73.4658 84.3118Z" fill="#005FAE"/>
<path d="M105.177 95.7732H99.9442C100.43 95.2093 100.771 94.5132 100.905 93.7471C102.029 93.7144 103.05 93.2446 103.791 92.5025C104.561 91.7339 105.039 90.6643 105.038 89.4898C105.039 88.8591 104.92 88.3044 104.684 87.8357C104.508 87.4847 104.268 87.1888 103.997 86.9502C103.589 86.5911 103.122 86.354 102.647 86.1607C102.171 85.9681 101.679 85.8185 101.197 85.66C98.8054 84.8745 96.4379 83.9765 94.1122 82.9999C93.6299 82.7981 93.0058 82.4676 92.3217 82.0784C91.2932 81.4943 90.1232 80.779 88.9882 80.149C88.4199 79.8339 87.8601 79.5399 87.3245 79.2925C86.7882 79.0455 86.2784 78.8444 85.7924 78.7191C84.9595 78.5051 83.9828 78.3357 82.9455 78.2181C81.9086 78.1004 80.8125 78.0354 79.7487 78.035C78.8945 78.0354 78.0612 78.0769 77.2926 78.1706C77.1205 78.1916 76.9533 78.2162 76.7886 78.2423V70.3291L77.0014 70.5372C77.1378 70.6702 77.3234 70.7459 77.5138 70.7459H80.8022C81.101 70.7459 81.369 70.5658 81.4819 70.289C81.5943 70.0123 81.5285 69.6961 81.3146 69.4877L76.5677 64.8548C76.5673 64.8548 76.5673 64.8544 76.567 64.8544L62.3119 50.9431C62.0267 50.6648 61.5724 50.6648 61.2875 50.9431L47.0321 64.8537L47.0317 64.854L42.2848 69.4874C42.0709 69.6961 42.0051 70.0119 42.1179 70.2887C42.2304 70.5655 42.4984 70.7456 42.7972 70.7456H46.087C46.2775 70.7456 46.4631 70.6699 46.5995 70.5368L46.8112 70.3302V91.6953C46.8112 91.8883 46.8895 92.0776 47.0258 92.214C47.1626 92.3507 47.3515 92.429 47.5445 92.429H66.3854C66.7357 92.7822 67.1136 93.0925 67.526 93.3266C67.7403 93.4479 67.9656 93.5494 68.2005 93.6232C68.3178 94.4378 68.6688 95.1788 69.1812 95.7732H44.7101C44.305 95.7732 43.9764 96.1018 43.9764 96.5069C43.9764 96.912 44.305 97.2406 44.7101 97.2406H105.177C105.582 97.2406 105.911 96.912 105.911 96.5069C105.911 96.1018 105.582 95.7732 105.177 95.7732ZM45.7882 69.2786H44.5991L48.0569 65.9038V65.9042L61.7999 52.4931L75.5429 65.9038L79.0007 69.2786H77.8127L76.5677 68.0634L62.3119 54.1524C62.0267 53.8741 61.5724 53.8741 61.2871 54.1524L47.0321 68.0648L45.7882 69.2786ZM48.2778 90.962V68.8989L61.7999 55.7025L75.3216 68.897V78.5919C75.2863 78.604 75.2477 78.6139 75.2128 78.6264C74.9132 78.7341 74.5291 78.8904 74.0759 79.09C72.492 79.7884 70.0774 81.0124 68.0149 82.432C67.5268 82.7687 67.0592 83.1164 66.6255 83.4726V77.5142C66.6255 77.3208 66.5472 77.1319 66.4108 76.9955C66.274 76.8588 66.0851 76.7805 65.8921 76.7805H57.708C57.515 76.7805 57.3257 76.8588 57.1894 76.9955C57.053 77.1319 56.9747 77.3208 56.9747 77.5142V89.5358C56.9747 89.9409 57.3033 90.2695 57.7084 90.2695C58.1135 90.2695 58.4421 89.9409 58.4421 89.5358V78.2475H65.1585V84.8892C64.8736 85.2267 64.628 85.5726 64.4417 85.935C64.2208 86.3658 64.077 86.8278 64.0767 87.3134C64.0767 87.4483 64.091 87.5843 64.1149 87.7192C64.1278 88.3073 64.2807 88.9186 64.5207 89.5358C64.527 89.552 64.5325 89.5681 64.5391 89.5847C64.7254 90.05 64.9633 90.5161 65.2397 90.962H48.2778ZM68.2667 92.0599C68.0237 91.9239 67.7613 91.7258 67.5051 91.477C66.978 90.969 66.4784 90.2595 66.127 89.5472C65.951 89.1914 65.8109 88.8348 65.7179 88.5077C65.6242 88.1809 65.5786 87.8824 65.5793 87.6534C65.5793 87.6001 65.5742 87.5505 65.5628 87.4987C65.5499 87.4391 65.5437 87.3788 65.5433 87.3138C65.5433 87.205 65.5617 87.0826 65.6054 86.9429C65.6859 86.6823 65.8594 86.3647 66.1233 86.0243C66.5836 85.4266 67.3099 84.7672 68.1645 84.1291C69.447 83.1693 71.0151 82.2493 72.4225 81.516C73.1264 81.1491 73.7903 80.8282 74.3586 80.5706C74.9257 80.3129 75.4006 80.1177 75.7101 80.0063C76.1652 79.8413 76.7761 79.7108 77.4697 79.627C78.1641 79.5424 78.943 79.502 79.7487 79.5024C80.7526 79.502 81.798 79.5645 82.7801 79.6759C83.7619 79.7873 84.682 79.9483 85.4271 80.1401C85.9001 80.2607 86.5269 80.5228 87.2102 80.8661C88.2379 81.3811 89.4013 82.0729 90.5099 82.7238C91.0646 83.0495 91.6068 83.3649 92.1173 83.6446C92.6283 83.9243 93.1058 84.1684 93.5443 84.3526C95.9016 85.3425 98.3055 86.2544 100.74 87.0535C101.183 87.1991 101.6 87.3285 101.963 87.4678C102.235 87.5718 102.476 87.681 102.677 87.7997C102.827 87.8887 102.955 87.982 103.062 88.082C103.222 88.2331 103.337 88.3937 103.426 88.6106C103.513 88.8271 103.571 89.1076 103.571 89.4898C103.571 90.2636 103.26 90.9572 102.753 91.4648C102.273 91.9442 101.625 92.2448 100.902 92.2768C100.748 91.4075 100.329 90.6271 99.7314 90.0302C98.9697 89.2667 97.9089 88.7929 96.7448 88.7933C95.581 88.7929 94.5202 89.2671 93.7582 90.0302C93.1591 90.6282 92.7393 91.4108 92.586 92.2831H82.0012V86.121C82.0012 85.7159 81.6726 85.3873 81.2675 85.3873C80.8625 85.3873 80.5339 85.7156 80.5339 86.121V92.2831H76.5383C76.3854 91.4112 75.9652 90.6286 75.3661 90.0302C74.6041 89.2667 73.5436 88.7929 72.3795 88.7933C71.2154 88.7929 70.1549 89.2671 69.3929 90.0302C68.8456 90.5771 68.4483 91.2777 68.2667 92.0599ZM70.4306 94.966C69.9307 94.465 69.6238 93.7806 69.6234 93.0171C69.6238 92.2533 69.9307 91.5689 70.4306 91.0678C70.9316 90.5679 71.6161 90.261 72.3799 90.2606C73.1433 90.261 73.8281 90.5679 74.3291 91.0678C74.8291 91.5689 75.1364 92.2533 75.1364 93.0171C75.1364 93.7806 74.8291 94.465 74.3291 94.966C73.8281 95.4659 73.1433 95.7728 72.3799 95.7732C71.6161 95.7728 70.9316 95.4659 70.4306 94.966ZM75.5789 95.7732C76.0649 95.2101 76.4045 94.515 76.5387 93.7501H81.2679H92.5864C92.7205 94.5146 93.0605 95.2101 93.5461 95.7732H75.5789ZM94.7959 94.966C94.296 94.465 93.9891 93.7806 93.9887 93.0171C93.9891 92.2533 94.296 91.5689 94.7959 91.0678C95.2969 90.5679 95.9813 90.261 96.7451 90.2606C97.509 90.261 98.1934 90.5679 98.6944 91.0678C99.1943 91.5689 99.5012 92.2533 99.5016 93.0171C99.5012 93.7806 99.1943 94.465 98.6944 94.966C98.1934 95.4659 97.509 95.7728 96.7451 95.7732C95.9813 95.7728 95.2969 95.4659 94.7959 94.966Z" fill="#005FAE"/>
</svg>
