<svg width="161" height="157" viewBox="0 0 161 157" fill="none" xmlns="http://www.w3.org/2000/svg">
<path d="M160.208 81.9965C160.208 122.782 127.144 155.845 86.3588 155.845C45.5731 155.845 12.5098 122.782 12.5098 81.9965C12.5098 41.2108 45.5731 8.14746 86.3588 8.14746C127.144 8.14746 160.208 41.2108 160.208 81.9965Z" stroke="#F8F5F5"/>
<path d="M148.698 74.349C148.698 115.411 115.411 148.698 74.349 148.698C33.2872 148.698 0 115.411 0 74.349C0 33.2872 33.2872 0 74.349 0C115.411 0 148.698 33.2872 148.698 74.349Z" fill="#F8F5F5"/>
<path d="M105.961 70.8239L105.74 60.7029L105.69 58.6566V58.6124L104.131 58.6456L103.605 58.6622L102.3 58.6898L100.691 58.723L98.6498 60.8578L92.2841 67.5111L90.3982 67.5498L90.2378 60.0725L90.2157 59.0991L89.1593 59.1212L83.7449 64.5356L65.87 82.4105L63.1379 85.1426L62.3802 84.9325L44.898 80.0379L68.3699 55.5208L73.9779 56.7873L74.4369 54.752L69.7912 53.7012L67.673 53.2256L65.9917 54.9843L42.8075 79.2138H42.8019L42.625 79.4019L42 80.0545L42.0111 80.414L42.0332 81.592L42.0498 82.311L42.094 84.4955L43.4324 84.8661L58.7134 89.1468L58.896 97.4261L58.9402 99.5166L61.0252 99.4724L76.5164 99.135L78.4134 99.0908L79.5361 99.0686L106 72.6048L105.961 70.8239ZM60.981 97.3818L60.8151 89.733L60.7653 87.5484L58.6692 86.9622L44.1514 82.8972L44.1072 81.0002L62.2143 86.0662L62.4023 86.1215L62.4189 86.6525V86.658L62.607 95.3355L76.4501 95.0368L76.262 86.5253L77.4732 86.4976L78.1314 86.4866L78.1535 87.4268L78.3636 97.0057L60.981 97.3818ZM78.6402 85.2809L78.1092 85.292L76.8095 85.3196L92.3394 69.0984L93.2686 68.125L100.259 60.8246V60.8191L102.09 60.7804L79.2596 84.6338L78.6402 85.2809ZM79.5416 96.1098L79.326 86.4589L79.3204 86.21L80.244 85.2422L103.655 60.7859V60.7472H103.694L103.655 60.7859L103.898 71.7586L79.5416 96.1098Z" fill="#005FAE"/>
<path d="M83.8063 76.7416L79.4095 81.6362L76.6332 81.4979C76.3732 79.7668 77.8831 76.4761 78.779 74.7229C79.1441 74.004 79.4095 73.5449 79.4095 73.5449H82.2467L82.7832 74.6455L83.8063 76.7416Z" fill="white"/>
<path d="M82.0864 64.4193V71.3713H79.5479V64.4193C79.5479 64.0709 79.6916 63.7501 79.9184 63.5234C80.1507 63.2966 80.4659 63.1528 80.8199 63.1528C81.5223 63.1528 82.0864 63.717 82.0864 64.4193Z" fill="white"/>
<path d="M85.6367 50.1006L83.8337 52.6115C83.8337 52.6115 82.8327 53.8061 81.1514 53.3194C81.1514 53.3194 78.1483 52.6613 76.6882 55.9796V57.2406L76.9149 57.0802L77.197 57.3623L76.7214 57.8379V59.3367L76.9149 59.1431L77.1528 59.5081L76.6827 59.9616V61.4991L76.9647 61.2945L77.1583 61.571L76.7546 61.9748C76.7546 61.9748 75.123 63.5178 78.7677 65.2876L82.8659 64.8562C82.8659 64.8562 85.5924 63.6616 87.0193 58.4628L90.3875 53.4853L91.8752 54.4366L88.9495 58.8776L84.4587 66.6592L77.7224 66.9523C77.7224 66.9523 75.4549 66.3439 74.5479 63.2191V55.952C74.5479 55.952 76.1849 50.6315 81.4279 51.4611C81.4279 51.4611 82.3073 51.9257 82.794 50.8749L84.0771 49L85.6367 50.1006Z" fill="#005FAE"/>
<path d="M82.7825 64.4689V68.8325H82.0856V71.371H79.5471V68.8325L78.7783 69.9276V64.4689C78.7783 63.9158 79.0051 63.4181 79.3646 63.053C79.724 62.688 80.2273 62.4668 80.7804 62.4668C81.8865 62.4668 82.7825 63.3628 82.7825 64.4689Z" fill="#005FAE"/>
<path d="M82.0526 71.7861H79.5859V72.765H82.0526V71.7861Z" fill="white"/>
<path d="M82.0864 64.3916V71.3767H79.5479V64.3916C79.5479 63.7113 80.1175 63.1582 80.8144 63.1582C81.5167 63.1527 82.0864 63.7058 82.0864 64.3916Z" fill="white"/>
<path d="M70.731 58.0259H69.9346V58.8223H70.731V58.0259Z" fill="#005FAE"/>
<path d="M65.4937 65.5752H64.6973V66.3716H65.4937V65.5752Z" fill="#005FAE"/>
<path d="M62.4624 74.6675H61.666V75.4639H62.4624V74.6675Z" fill="#005FAE"/>
<path d="M63.6519 80.0044H62.8555V80.8008H63.6519V80.0044Z" fill="#005FAE"/>
<path d="M81.0015 85.502H80.2051V86.2984H81.0015V85.502Z" fill="#005FAE"/>
<path d="M82.19 90.8389H81.3936V91.6353H82.19V90.8389Z" fill="#005FAE"/>
<path d="M101.42 65.5752H100.624V66.3716H101.42V65.5752Z" fill="#005FAE"/>
<path d="M85.0658 72.568L85.0244 73.3633L85.8197 73.4047L85.8611 72.6094L85.0658 72.568Z" fill="white"/>
<path d="M85.4701 66.506L85.4287 67.3013L86.224 67.3427L86.2654 66.5474L85.4701 66.506Z" fill="white"/>
<path d="M72.3822 85.7345L72.3408 86.5298L73.1361 86.5712L73.1775 85.7759L72.3822 85.7345Z" fill="white"/>
<path d="M73.9584 77.5973L73.917 78.3926L74.7123 78.434L74.7537 77.6387L73.9584 77.5973Z" fill="white"/>
<path d="M65.4262 91.9669L65.3848 92.7622L66.1801 92.8036L66.2215 92.0083L65.4262 91.9669Z" fill="white"/>
<path d="M65.8363 85.9054L65.7949 86.7007L66.5902 86.7421L66.6316 85.9468L65.8363 85.9054Z" fill="white"/>
<path d="M73.5678 92.7911L73.5264 93.5864L74.3217 93.6278L74.3631 92.8325L73.5678 92.7911Z" fill="white"/>
<path d="M50.4448 78.6992H49.6484V79.4956H50.4448V78.6992Z" fill="#005FAE"/>
<path d="M71.8706 70.293H71.0742V71.0894H71.8706V70.293Z" fill="#005FAE"/>
</svg>
