<svg width="54" height="52" viewBox="0 0 54 52" fill="none" xmlns="http://www.w3.org/2000/svg">
<path fill-rule="evenodd" clip-rule="evenodd" d="M0.572266 12.6094C0.572266 6.85057 5.01539 2.18213 10.4963 2.18213H34.9245C40.4054 2.18213 44.8485 6.85057 44.8485 12.6094C44.8485 18.3682 40.4054 23.0367 34.9245 23.0367H10.4963C5.01539 23.0367 0.572266 18.3682 0.572266 12.6094ZM10.4963 5.39052C6.70181 5.39052 3.6258 8.62252 3.6258 12.6094C3.6258 16.5963 6.70181 19.8283 10.4963 19.8283H34.9245C38.719 19.8283 41.795 16.5963 41.795 12.6094C41.795 8.62252 38.719 5.39052 34.9245 5.39052H10.4963Z" fill="#005FAE"/>
<path fill-rule="evenodd" clip-rule="evenodd" d="M45.612 15.8178C45.612 14.4888 44.5866 13.4115 43.3218 13.4115L43.3218 10.2031C46.273 10.2031 48.6655 12.7169 48.6655 15.8178V22.2346C48.6655 26.6644 45.2477 30.2556 41.0317 30.2556H26.5274C23.9978 30.2556 21.9471 32.4102 21.9471 35.0681V49.5058C21.9471 50.3918 21.2635 51.11 20.4203 51.11C19.5771 51.11 18.8936 50.3918 18.8936 49.5058V35.0681C18.8936 30.6383 22.3113 27.0472 26.5274 27.0472H41.0317C43.5613 27.0472 45.612 24.8925 45.612 22.2346V15.8178Z" fill="#005FAE"/>
</svg>
