<svg width="60" height="63" viewBox="0 0 60 63" fill="none" xmlns="http://www.w3.org/2000/svg">
<path d="M11.604 50.8285L10.1911 51.225C10.3261 51.7563 10.7211 52.1712 11.2267 52.3131L11.604 50.8285ZM48.5428 12.0165L49.9557 11.6201C49.8207 11.0888 49.4257 10.6738 48.9201 10.5319L48.5428 12.0165ZM19.4125 20.2209L20.4466 21.3075L19.4125 20.2209ZM39.7002 41.5375C32.1922 49.4263 21.5575 52.0309 11.9814 49.3439L11.2267 52.3131C21.7701 55.2715 33.4923 52.4065 41.7684 43.7106L39.7002 41.5375ZM47.1298 12.413C49.6871 22.4747 47.2082 33.6488 39.7002 41.5375L41.7684 43.7106C50.0446 35.0148 52.7713 22.6981 49.9557 11.6201L47.1298 12.413ZM20.4466 21.3075C27.9546 13.4187 38.5893 10.8141 48.1654 13.5011L48.9201 10.5319C38.3767 7.5735 26.6545 10.4385 18.3784 19.1344L20.4466 21.3075ZM13.017 50.4321C10.4597 40.3703 12.9386 29.1963 20.4466 21.3075L18.3784 19.1344C10.1022 27.8303 7.37546 40.1469 10.1911 51.225L13.017 50.4321Z" fill="#005FAE"/>
<path d="M12.3252 50.5899C16.9055 42.8363 24.2338 31.213 38.2801 21.9087" stroke="#005FAE" stroke-width="3" stroke-linecap="round" stroke-linejoin="round"/>
</svg>
