<svg width="161" height="157" viewBox="0 0 161 157" fill="none" xmlns="http://www.w3.org/2000/svg">
<path d="M160.367 81.9965C160.367 122.782 127.304 155.845 86.5179 155.845C45.7323 155.845 12.6689 122.782 12.6689 81.9965C12.6689 41.2108 45.7323 8.14746 86.5179 8.14746C127.304 8.14746 160.367 41.2108 160.367 81.9965Z" stroke="#F8F5F5"/>
<path d="M148.698 74.349C148.698 115.411 115.411 148.698 74.349 148.698C33.2872 148.698 0 115.411 0 74.349C0 33.2872 33.2872 0 74.349 0C115.411 0 148.698 33.2872 148.698 74.349Z" fill="#F8F5F5"/>
<g clip-path="url(#clip0_737_271)">
<path d="M51 70C50.2089 70 49.4355 70.2346 48.7777 70.6741C48.1199 71.1136 47.6072 71.7384 47.3045 72.4693C47.0017 73.2002 46.9225 74.0044 47.0769 74.7804C47.2312 75.5563 47.6122 76.269 48.1716 76.8284C48.731 77.3878 49.4437 77.7688 50.2196 77.9231C50.9956 78.0775 51.7998 77.9983 52.5307 77.6955C53.2616 77.3928 53.8864 76.8801 54.3259 76.2223C54.7654 75.5645 55 74.7911 55 74C54.9988 72.9395 54.577 71.9228 53.8271 71.1729C53.0772 70.423 52.0605 70.0012 51 70ZM51 76C50.6044 76 50.2178 75.8827 49.8889 75.6629C49.56 75.4432 49.3036 75.1308 49.1522 74.7654C49.0009 74.3999 48.9613 73.9978 49.0384 73.6098C49.1156 73.2219 49.3061 72.8655 49.5858 72.5858C49.8655 72.3061 50.2219 72.1156 50.6098 72.0384C50.9978 71.9613 51.3999 72.0009 51.7654 72.1522C52.1308 72.3036 52.4432 72.56 52.6629 72.8889C52.8827 73.2178 53 73.6044 53 74C52.9994 74.5303 52.7885 75.0386 52.4136 75.4136C52.0386 75.7885 51.5303 75.9994 51 76Z" fill="#005FAE"/>
<path d="M42.2929 84.9164C42.1661 85.0433 42.0756 85.202 42.0312 85.3758C41.9867 85.5497 41.9899 85.7323 42.0403 85.9045L42.9596 89.0429L42.0403 92.1813C41.9899 92.3535 41.9867 92.5361 42.0312 92.71C42.0756 92.8839 42.166 93.0426 42.2929 93.1695C42.4198 93.2964 42.5786 93.3868 42.7524 93.4312C42.9263 93.4757 43.109 93.4725 43.2812 93.422L46.4194 92.5028L49.5577 93.422C49.7299 93.4725 49.9126 93.4757 50.0865 93.4312C50.2604 93.3868 50.4191 93.2964 50.546 93.1695C50.673 93.0426 50.7634 92.8838 50.8078 92.7099C50.8522 92.536 50.849 92.3534 50.7986 92.1811L49.8793 89.0429L50.7986 85.9046C50.849 85.7324 50.8522 85.5498 50.8077 85.3759C50.7633 85.202 50.6729 85.0433 50.546 84.9164C50.4191 84.7895 50.2603 84.6991 50.0864 84.6547C49.9126 84.6102 49.7299 84.6134 49.5577 84.6639L46.4194 85.5831L43.2812 84.6639C43.109 84.6134 42.9263 84.6102 42.7525 84.6547C42.5786 84.6991 42.4199 84.7895 42.2929 84.9164ZM44.9613 88.7619L44.4738 87.0971L46.1384 87.5846C46.3221 87.6385 46.5173 87.6385 46.7009 87.5846L48.3656 87.0971L47.8781 88.7618C47.8243 88.9454 47.8243 89.1406 47.8781 89.3243L48.3656 90.9889L46.7009 90.5014C46.5173 90.4476 46.3221 90.4476 46.1384 90.5014L44.4738 90.9889L44.9613 89.3241C45.015 89.1406 45.015 88.9454 44.9612 88.7619H44.9613Z" fill="#005FAE"/>
<path d="M86 87H74C73.7348 87 73.4804 87.1054 73.2929 87.2929C73.1054 87.4804 73 87.7348 73 88V95.25C73.0014 96.5093 73.5023 97.7167 74.3928 98.6072C75.2833 99.4977 76.4907 99.9986 77.75 100H82.25C83.5093 99.9986 84.7167 99.4977 85.6072 98.6072C86.4977 97.7167 86.9986 96.5093 87 95.25V88C87 87.7348 86.8946 87.4804 86.7071 87.2929C86.5196 87.1054 86.2652 87 86 87ZM85 95.25C84.9992 95.9791 84.7092 96.6781 84.1936 97.1936C83.6781 97.7092 82.9791 97.9992 82.25 98H77.75C77.0209 97.9992 76.3219 97.7092 75.8064 97.1936C75.2908 96.6781 75.0008 95.9791 75 95.25V89H85V95.25Z" fill="#005FAE"/>
<path d="M80 85C81.1867 85 82.3467 84.6481 83.3334 83.9888C84.3201 83.3295 85.0892 82.3925 85.5433 81.2961C85.9974 80.1997 86.1162 78.9933 85.8847 77.8295C85.6532 76.6656 85.0818 75.5965 84.2426 74.7574C83.4035 73.9182 82.3344 73.3468 81.1705 73.1153C80.0067 72.8838 78.8003 73.0026 77.7039 73.4567C76.6075 73.9109 75.6705 74.6799 75.0112 75.6666C74.3519 76.6533 74 77.8133 74 79C74.0018 80.5908 74.6345 82.1158 75.7593 83.2407C76.8842 84.3655 78.4092 84.9982 80 85ZM80 75C80.7911 75 81.5645 75.2346 82.2223 75.6741C82.8801 76.1137 83.3928 76.7384 83.6955 77.4693C83.9983 78.2002 84.0775 79.0044 83.9231 79.7804C83.7688 80.5563 83.3878 81.269 82.8284 81.8284C82.269 82.3878 81.5563 82.7688 80.7804 82.9231C80.0044 83.0775 79.2002 82.9983 78.4693 82.6955C77.7384 82.3928 77.1136 81.8801 76.6741 81.2223C76.2346 80.5645 76 79.7911 76 79C76.0012 77.9395 76.423 76.9228 77.1729 76.1729C77.9228 75.423 78.9395 75.0012 80 75Z" fill="#005FAE"/>
<path d="M75 42C72.0836 42.0033 69.2877 43.1633 67.2255 45.2255C65.1633 47.2877 64.0033 50.0836 64 53V57.8985L56.0688 96.5633L52.5194 101H45C44.7348 101 44.4804 101.105 44.2929 101.293C44.1054 101.48 44 101.735 44 102V105C44 105.265 44.1054 105.52 44.2929 105.707C44.4804 105.895 44.7348 106 45 106H64C64.2652 106 64.5196 105.895 64.7071 105.707C64.8946 105.52 65 105.265 65 105V102C65 101.735 64.8946 101.48 64.7071 101.293C64.5196 101.105 64.2652 101 64 101H62V97.1015L69.9796 58.2015C69.9929 58.1354 69.9994 58.0681 69.9991 58.0006H70V53.1905C70 50.3284 72.243 48 75 48C77.757 48 80 50.3284 80 53.1905V63H79C78.7348 63 78.4804 63.1054 78.2929 63.2929C78.1054 63.4804 78 63.7348 78 64V67.4385C75.4153 68.1534 73.136 69.6954 71.5107 71.8284C69.8853 73.9615 69.0035 76.5683 69 79.25V101.25C69.0014 102.509 69.5023 103.717 70.3928 104.607C71.2833 105.498 72.4907 105.999 73.75 106H98C101.308 106 104 102.86 104 99C104 95.5375 101.834 92.6564 99 92.0991V79.25C98.9963 76.2185 97.8702 73.2958 95.839 71.0454C93.8078 68.795 91.0153 67.3765 88 67.0632V64C88 63.7348 87.8946 63.4804 87.7071 63.2929C87.5196 63.1054 87.2652 63 87 63H86V53C85.9967 50.0836 84.8367 47.2877 82.7745 45.2255C80.7123 43.1633 77.9164 42.0033 75 42ZM81.9024 52H83.9431C83.9805 52.332 83.9995 52.6659 84 53V54H82V53.1905C81.9996 52.7917 81.967 52.3936 81.9024 52ZM82 56H84V58H82V56ZM83.484 50H81.2707C81.074 49.5934 80.8397 49.2061 80.5708 48.8432L82.0275 47.3868C82.6555 48.1704 83.1478 49.0537 83.484 50ZM79.1681 47.4176C78.7472 47.0962 78.2909 46.8239 77.8083 46.606L79.3117 45.1025C79.7699 45.3543 80.2053 45.6455 80.6131 45.9726L79.1681 47.4176ZM66 55H68V57H66V55ZM66.4661 50.1474L68.4548 50.6445C68.1762 51.3996 68.0242 52.1954 68.0047 53H66C65.9999 52.0302 66.1574 51.0668 66.4661 50.1474ZM69.4399 48.8292L67.3274 48.3012C67.7708 47.5799 68.3132 46.9241 68.9386 46.3533L70.3803 47.7949C70.0339 48.1082 69.7189 48.4547 69.4399 48.8292ZM70.5794 45.1653C71.3363 44.7363 72.1517 44.4201 73 44.2267V46.3006C72.6834 46.398 72.3742 46.5183 72.075 46.6605L70.5794 45.1653ZM63 104H46V103H63V104ZM55.0806 101L57.4806 98H60V101H55.0806ZM60.1844 96H58.226L65.8158 59H67.7741L60.1844 96ZM75 44C75.7728 43.9998 76.5423 44.0993 77.2896 44.2961L75.5606 46.025C75.375 46.01 75.1889 46 75 46V44ZM82 60H84V63H82V60ZM80 65H86V67H81.25C80.8325 66.9999 80.4153 67.021 80 67.0632V65ZM71 101.25V79.25C71.0031 76.5325 72.084 73.9271 74.0056 72.0056C75.9271 70.084 78.5325 69.0031 81.25 69H81.9642C85.8438 69 89 73.5981 89 79.25V104H73.75C73.0209 103.999 72.3219 103.709 71.8064 103.194C71.2908 102.678 71.0008 101.979 71 101.25ZM102 99C102 101.757 100.206 104 98 104C95.7944 104 94 101.757 94 99C94 96.243 95.7944 94 98 94C100.206 94 102 96.243 102 99ZM97 79.25V92.0991C94.1661 92.6564 92 95.5379 92 99C92 100.957 92.693 102.729 93.8066 104H91V79.25C91 76.0384 90.098 73.0069 88.4601 70.7138C88.0183 70.0899 87.5089 69.5167 86.9411 69.0047C89.6247 69.0574 92.1808 70.1595 94.0612 72.0748C95.9416 73.99 96.9967 76.5659 97 79.25Z" fill="#005FAE"/>
<path d="M77 91H79V94H77V91Z" fill="#005FAE"/>
<path d="M54 81H56V83H54V81Z" fill="#005FAE"/>
<path d="M65 95H67V97H65V95Z" fill="#005FAE"/>
<path d="M49 96H51V98H49V96Z" fill="#005FAE"/>
<path d="M42 78.625H44V80.625H42V78.625Z" fill="#005FAE"/>
</g>
<defs>
<clipPath id="clip0_737_271">
<rect width="64" height="64" fill="white" transform="translate(42 42)"/>
</clipPath>
</defs>
</svg>
