<svg width="161" height="157" viewBox="0 0 161 157" fill="none" xmlns="http://www.w3.org/2000/svg">
<path d="M160.208 81.9965C160.208 122.782 127.144 155.845 86.3588 155.845C45.5731 155.845 12.5098 122.782 12.5098 81.9965C12.5098 41.2108 45.5731 8.14746 86.3588 8.14746C127.144 8.14746 160.208 41.2108 160.208 81.9965Z" stroke="#F8F5F5"/>
<path d="M148.698 74.349C148.698 115.411 115.411 148.698 74.349 148.698C33.2872 148.698 0 115.411 0 74.349C0 33.2872 33.2872 0 74.349 0C115.411 0 148.698 33.2872 148.698 74.349Z" fill="#F8F5F5"/>
<g clip-path="url(#clip0_628_190)">
<path d="M105.37 90.1099L102.54 87.29C102.15 86.9023 101.52 86.9023 101.13 87.29L100.42 87.9902L95.5601 83.1299C93.9292 81.499 92.415 79.7544 91.0298 77.9102C90.7998 77.6001 90.5698 77.2998 90.3198 77H100V85H102V46H99V48H100V71H89.4502L89.79 67.9902C89.958 66.5 89.4351 65.0151 88.3701 63.96L86.1602 61.7402C85.7817 61.3711 85.3506 61.0605 84.8799 60.8198L82.4702 59.6201C81.9717 59.3682 81.5557 58.9795 81.27 58.5L79.3398 55.2998C78.9453 54.6274 78.3926 54.061 77.73 53.6499L77 53.1899V48H81.875V46H46V85H48V77H51.6201C51.6484 77.4331 51.5801 77.8667 51.4199 78.27C50.4751 80.6499 51.5034 83.3574 53.79 84.5098L56.1802 85.71C56.3662 85.7983 56.5405 85.9092 56.7002 86.04L59.7002 88.4399C60.5713 89.1455 61.6587 89.5303 62.7798 89.5298C63.314 89.5269 63.8437 89.439 64.3501 89.27L68.3198 87.9502L68.25 87.7598L70.6001 89.25C70.6714 89.2905 70.7446 89.3272 70.8198 89.3599L71 89.4199V100H47V102H85.312V100H77V91.4199L81.21 92.8198L88.3999 100.01L87.7002 100.72C87.5093 100.907 87.4009 101.163 87.3999 101.43C87.4009 101.694 87.5093 101.947 87.7002 102.13L90.52 104.96C90.7075 105.15 90.9629 105.258 91.23 105.26C91.4976 105.26 91.7534 105.152 91.9399 104.96L105.37 91.5298C105.76 91.1372 105.76 90.5029 105.37 90.1099ZM100 73V75H89L89.23 73H100ZM75 48V51.9502L73.1802 50.8101C73.1221 50.7729 73.062 50.7393 73 50.71V48H75ZM71 48V50.0801C69.5469 49.9463 68.1099 50.4668 67.0801 51.5L65.6802 52.8999C65.0288 53.5498 64.1108 53.8569 63.2002 53.73L59.0601 53.1401C58.3008 53.0293 57.5259 53.1011 56.7998 53.3501L52.4199 54.8101C51.1738 55.2163 50.1431 56.1064 49.5601 57.2798C48.9736 58.4512 48.8765 59.8071 49.29 61.0498L49.8501 62.71C49.9502 63.0098 50.0005 63.3237 50 63.6401V71H48V48H71ZM48 75V73H50.0898C50.1743 73.4443 50.3188 73.875 50.52 74.2798L50.8799 75H48ZM63.71 87.3799C62.7646 87.6934 61.7251 87.5049 60.9502 86.8799L57.9502 84.48C57.6758 84.2647 57.3813 84.0772 57.0698 83.9199L54.6802 82.7202C53.3232 82.0322 52.7124 80.4253 53.27 79.0098C53.5312 78.3735 53.647 77.687 53.6099 77C53.5923 76.3047 53.4219 75.6216 53.1099 75C53.1099 74.9902 53.1001 74.98 53.1001 74.9702L52.3101 73.3799C52.2495 73.2578 52.1997 73.1304 52.1602 73C52.0527 72.7017 51.9985 72.3867 52 72.0698V63.6401C52.0024 63.1099 51.918 62.583 51.75 62.0801L51.1899 60.4199C50.9458 59.6816 51.0034 58.8765 51.3501 58.1802C51.6934 57.4771 52.3066 56.9434 53.0498 56.7002L57.4399 55.2402C57.8721 55.1006 58.3301 55.0596 58.7798 55.1201L62.9102 55.71C64.4468 55.9233 65.9951 55.4092 67.1001 54.3198L68.5 52.9199C69.1523 52.2598 70.083 51.9546 71 52.1001C71.3989 52.1538 71.7808 52.2935 72.1201 52.5098L73 53.0601L75 54.3101L76.6699 55.3501C76.7881 55.4185 76.8984 55.499 77 55.5898C77.249 55.8008 77.4619 56.0508 77.6299 56.3301L79.5498 59.5298C80.0352 60.3364 80.7388 60.9883 81.5801 61.4102L83.98 62.6099C84.2632 62.748 84.52 62.9341 84.7402 63.1602L86.96 65.3701C87.5908 66.0005 87.9004 66.8838 87.7998 67.77L87.4399 71L87.2202 73L87.1802 73.3599C86.8999 73.0601 86.6099 72.7598 86.3198 72.4702L72.5498 58.71C71.3789 57.54 69.4814 57.54 68.3101 58.71C68.0684 58.9517 67.8687 59.2324 67.7202 59.54L66.1899 58C65.0024 56.8696 63.1372 56.8696 61.9502 58C61.7065 58.2402 61.5068 58.521 61.3599 58.8301L61.2402 58.71C60.0527 57.5801 58.1875 57.5801 57 58.71C56.4365 59.2715 56.1201 60.0347 56.1201 60.8301C56.1201 61.6255 56.4365 62.3882 57 62.9502L57.1201 63.0698C56.811 63.2168 56.5303 63.4165 56.29 63.6602C55.1201 64.8311 55.1201 66.7285 56.29 67.8999L65.3901 77L68.0298 79.6401C66.3853 79.271 64.7134 80.1387 64.0693 81.6963C63.4248 83.2539 63.9951 85.0493 65.4199 85.9502L66.2998 86.5098L63.71 87.3799ZM75 100H73V90.0898L75 90.75V100ZM82.4502 91.2402C82.3413 91.1274 82.2075 91.042 82.0601 90.9902L77 89.3101L75 88.6401L73 87.98L71.5698 87.5L71 87.1401L66.4902 84.2598C66.1147 84.0244 65.8682 83.6304 65.8198 83.1899C65.7725 82.7471 65.9268 82.3066 66.2402 81.9902C66.7139 81.5112 67.4546 81.4199 68.0298 81.77L71 83.5498L73 84.75L73.4502 85.02C73.8843 85.2847 74.4478 85.1816 74.7598 84.7798C75.0698 84.3809 75.0308 83.8135 74.6699 83.46L57.7002 66.4902C57.3081 66.0977 57.3081 65.4619 57.7002 65.0698C58.0923 64.6777 58.728 64.6777 59.1201 65.0698L68.3101 74.2598C68.5967 74.542 69.0239 74.6265 69.396 74.4741C69.7681 74.3218 70.0137 73.9619 70.02 73.5601C70.02 73.2925 69.9116 73.0366 69.7202 72.8501L58.4102 61.54C58.0234 61.1455 58.0234 60.5142 58.4102 60.1201C58.811 59.75 59.4292 59.75 59.8301 60.1201L71.1401 71.4399C71.5303 71.8276 72.1602 71.8276 72.5498 71.4399C72.9399 71.0469 72.9399 70.4131 72.5498 70.02L63.3599 60.8301C62.9722 60.4399 62.9722 59.8101 63.3599 59.4199C63.7573 59.04 64.3828 59.04 64.7798 59.4199L68.3101 62.9502L73.9702 68.6099C74.3599 68.9976 74.9897 68.9976 75.3799 68.6099C75.5688 68.4224 75.6733 68.166 75.6699 67.8999C75.6714 67.6343 75.5674 67.3789 75.3799 67.1899L69.7202 61.54C69.3335 61.1455 69.3335 60.5142 69.7202 60.1201C70.1128 59.73 70.7471 59.73 71.1401 60.1201L84.8999 73.8901C85.2598 74.25 85.6201 74.6201 85.9702 75C86.5898 75.6499 87.1802 76.3198 87.7402 77C88.3301 77.6899 88.8901 78.3901 89.4302 79.1099C90.873 81.0293 92.4507 82.8438 94.1499 84.54L99.0098 89.4102L89.8198 98.6001L82.4502 91.2402ZM91.23 102.84L89.8198 101.43L101.84 89.4102L103.25 90.8198L91.23 102.84Z" fill="#005FAE"/>
<path d="M43 94.5C44.9331 94.5 46.5 96.0669 46.5 98C46.5 98.5522 46.9478 99 47.5 99C48.0522 99 48.5 98.5522 48.5 98C48.5 96.0669 50.0669 94.5 52 94.5C52.5522 94.5 53 94.0522 53 93.5C53 92.9478 52.5522 92.5 52 92.5C50.0669 92.5 48.5 90.9331 48.5 89C48.5 88.4478 48.0522 88 47.5 88C46.9478 88 46.5 88.4478 46.5 89C46.5 90.9331 44.9331 92.5 43 92.5C42.4478 92.5 42 92.9478 42 93.5C42 94.0522 42.4478 94.5 43 94.5ZM47.5 92.1592C47.8662 92.6802 48.3198 93.1338 48.8408 93.5C48.3198 93.8662 47.8662 94.3198 47.5 94.8408C47.1338 94.3198 46.6802 93.8662 46.1592 93.5C46.6802 93.1338 47.1338 92.6802 47.5 92.1592Z" fill="#005FAE"/>
<path d="M44 44H87.958V42H42V90.625H44V44Z" fill="#005FAE"/>
<path d="M44 95.917H42V106H86V104H44V95.917Z" fill="#005FAE"/>
<path d="M93.208 42V44H104V86H106V42H93.208Z" fill="#005FAE"/>
<path d="M85 47.5C85 48.0522 85.4478 48.5 86 48.5C87.9331 48.5 89.5 50.0669 89.5 52C89.5 52.5522 89.9478 53 90.5 53C91.0522 53 91.5 52.5522 91.5 52C91.5 50.0669 93.0669 48.5 95 48.5C95.5522 48.5 96 48.0522 96 47.5C96 46.9478 95.5522 46.5 95 46.5C93.0669 46.5 91.5 44.9331 91.5 43C91.5 42.4478 91.0522 42 90.5 42C89.9478 42 89.5 42.4478 89.5 43C89.5 44.9331 87.9331 46.5 86 46.5C85.4478 46.5 85 46.9478 85 47.5ZM90.5 46.1592C90.8662 46.6802 91.3198 47.1338 91.8408 47.5C91.3198 47.8662 90.8662 48.3198 90.5 48.8408C90.1338 48.3198 89.6802 47.8662 89.1592 47.5C89.6802 47.1338 90.1338 46.6802 90.5 46.1592Z" fill="#005FAE"/>
<path d="M104 104H96V106H106V95H104V104Z" fill="#005FAE"/>
<path d="M98 100V102H102V98.438H100V100H98Z" fill="#005FAE"/>
</g>
<defs>
<clipPath id="clip0_628_190">
<rect width="64" height="64" fill="white" transform="translate(42 42)"/>
</clipPath>
</defs>
</svg>
