<svg width="161" height="157" viewBox="0 0 161 157" fill="none" xmlns="http://www.w3.org/2000/svg">
<path d="M160.349 81.9965C160.349 122.782 127.286 155.845 86.5004 155.845C45.7147 155.845 12.6514 122.782 12.6514 81.9965C12.6514 41.2108 45.7147 8.14746 86.5004 8.14746C127.286 8.14746 160.349 41.2108 160.349 81.9965Z" stroke="#F8F5F5"/>
<path d="M148.84 74.349C148.84 115.411 115.552 148.698 74.4906 148.698C33.4288 148.698 0.141602 115.411 0.141602 74.349C0.141602 33.2872 33.4288 0 74.4906 0C115.552 0 148.84 33.2872 148.84 74.349Z" fill="#F8F5F5"/>
<g clip-path="url(#clip0_631_221)">
<path d="M105.978 98.6391L103.834 87.6446C103.734 87.1315 103.238 86.7963 102.724 86.8966C102.211 86.9967 101.876 87.4938 101.976 88.007L103.788 97.2994L102.324 96.3134C100.7 95.2196 98.7023 94.9863 96.9184 95.6126L91.0844 58.3183C92.0786 57.6881 93.3395 57.7016 94.3209 58.3626L96.4796 59.8166L101.189 83.9728C101.29 84.4858 101.787 84.8213 102.3 84.7207C102.813 84.6206 103.148 84.1236 103.048 83.6104L98.2808 59.1622C98.2209 58.8548 98.0448 58.5888 97.7839 58.4126L95.3784 56.7925C93.7311 55.6831 91.6023 55.6831 89.9553 56.7925L89.654 56.9953C88.6494 57.6718 87.351 57.672 86.3461 56.9954L86.0448 56.7925C84.3975 55.6831 82.2688 55.6831 80.6216 56.7926L80.3205 56.9953C79.3157 57.6718 78.0174 57.6721 77.0126 56.9953L76.7114 56.7925C75.0642 55.6832 72.9354 55.683 71.2881 56.7925L70.9869 56.9953C69.9822 57.6721 68.6838 57.672 67.6792 56.9954L67.3779 56.7925C65.7308 55.6831 63.6019 55.6831 61.9548 56.7925L61.6536 56.9953C60.649 57.6721 59.3506 57.6721 58.3458 56.9953L58.0446 56.7925C56.3973 55.6831 54.2685 55.6831 52.6215 56.7925L50.2152 58.4131C49.9553 58.5886 49.7791 58.8546 49.719 59.1624L42.022 98.639C41.9306 99.1069 42.1284 99.5796 42.5259 99.8431C42.9234 100.107 43.4357 100.105 43.8316 99.8386L46.7338 97.8837C48.1568 96.9251 49.9961 96.9251 51.4193 97.8836L51.9071 98.2122C53.9728 99.6036 56.6423 99.6036 58.708 98.2122L59.1955 97.8837C60.6187 96.9249 62.458 96.9253 63.881 97.8836L64.3687 98.2122C66.4344 99.6036 69.104 99.6036 71.1697 98.2122L71.6572 97.8837C73.0804 96.9249 74.9197 96.9253 76.3427 97.8836L76.8303 98.2122C78.8961 99.6036 81.5655 99.6036 83.6314 98.2122L84.1189 97.8837C85.5421 96.9251 87.3814 96.9252 88.8044 97.8836L89.292 98.2122C91.3578 99.6036 94.0272 99.6036 96.0931 98.2122L96.5805 97.8837C98.0038 96.9251 99.8431 96.9251 101.266 97.8837L104.168 99.8387C104.367 99.9728 104.596 100.04 104.825 100.04C105.05 100.04 105.276 99.9741 105.474 99.8433C105.872 99.5797 106.069 99.107 105.978 98.6391ZM52.9648 96.6418L52.849 96.5639L53.6735 91.293C53.7543 90.7764 53.4011 90.2922 52.8846 90.2114C52.3681 90.1309 51.884 90.4839 51.8031 91.0004L51.0816 95.6126C49.2978 94.9863 47.3004 95.2196 45.6761 96.3134L44.2122 97.2994L51.5206 59.8164L53.6793 58.3625C54.6607 57.7014 55.9215 57.6879 56.9158 58.3183L52.4343 86.9661C52.3534 87.4827 52.7067 87.9669 53.2231 88.0476C53.2728 88.0555 53.322 88.0591 53.3706 88.0591C53.8288 88.0591 54.2316 87.7255 54.3046 87.2586L58.6919 59.2139C59.6121 59.4732 60.5877 59.4537 61.4995 59.1553L57.8949 96.477L57.6503 96.6418C56.2271 97.6003 54.3879 97.6003 52.9648 96.6418ZM59.8913 95.4997L63.5039 58.0968C64.4069 57.7088 65.4493 57.7909 66.2919 58.345L63.4427 95.5787C62.2907 95.1966 61.0551 95.1703 59.8913 95.4997ZM65.4265 96.6418L65.2683 96.5353L68.1224 59.2395C69.0605 59.483 70.051 59.4395 70.9698 59.1083L70.318 96.503L70.1119 96.6418C68.6889 97.6003 66.8496 97.6003 65.4265 96.6418ZM72.2286 95.5355L72.8814 58.0778C73.5993 57.7829 74.4007 57.7828 75.1187 58.0778L75.7717 95.5355C74.6164 95.1817 73.3837 95.1817 72.2286 95.5355ZM84.5575 95.5785L82.4901 68.564C82.4502 68.0427 81.9955 67.653 81.4739 67.6923C80.9526 67.7322 80.5624 68.1872 80.6022 68.7085L82.7318 96.5354L82.5737 96.6419C81.1507 97.6007 79.3113 97.6005 77.8883 96.6419L77.6821 96.5031L77.0303 59.1085C77.949 59.4397 78.9395 59.4832 79.8777 59.2397L80.2936 64.6744C80.3318 65.1712 80.7465 65.5488 81.2366 65.5488C81.2607 65.5488 81.2853 65.5479 81.3098 65.5462C81.8311 65.5063 82.2214 65.0513 82.1815 64.53L81.7082 58.3451C82.5508 57.7911 83.5933 57.7089 84.4962 58.0969L88.1088 95.4999C86.945 95.1703 85.7096 95.1966 84.5575 95.5785ZM90.3499 96.6418L90.1051 96.4768L86.5004 59.1554C87.4122 59.4538 88.3877 59.4734 89.3081 59.214L95.151 96.5639L95.0355 96.6417C93.6122 97.6005 91.7729 97.6002 90.3499 96.6418Z" fill="#005FAE"/>
</g>
<defs>
<clipPath id="clip0_631_221">
<rect width="64" height="64" fill="white" transform="translate(42 46)"/>
</clipPath>
</defs>
</svg>
