<svg width="161" height="157" viewBox="0 0 161 157" fill="none" xmlns="http://www.w3.org/2000/svg">
<path d="M160.367 81.9965C160.367 122.782 127.304 155.845 86.5179 155.845C45.7323 155.845 12.6689 122.782 12.6689 81.9965C12.6689 41.2108 45.7323 8.14746 86.5179 8.14746C127.304 8.14746 160.367 41.2108 160.367 81.9965Z" stroke="#F8F5F5"/>
<path d="M148.698 74.349C148.698 115.411 115.411 148.698 74.349 148.698C33.2872 148.698 0 115.411 0 74.349C0 33.2872 33.2872 0 74.349 0C115.411 0 148.698 33.2872 148.698 74.349Z" fill="#F8F5F5"/>
<path d="M66.1133 93.2559C65.561 93.2559 65.1133 93.7036 65.1133 94.2559V94.7881C65.1133 95.3403 65.561 95.7881 66.1133 95.7881C66.6655 95.7881 67.1133 95.3403 67.1133 94.7881V94.2559C67.1133 93.7036 66.6655 93.2559 66.1133 93.2559Z" fill="#005FAE"/>
<path d="M83.8398 96.7559H92.207C92.7593 96.7559 93.207 96.3081 93.207 95.7559V88.5474C93.207 87.9951 92.7593 87.5474 92.207 87.5474H83.8398C83.2876 87.5474 82.8398 87.9951 82.8398 88.5474V95.7559C82.8398 96.3081 83.2876 96.7559 83.8398 96.7559ZM84.8398 93.1519H87.0234V94.7559H84.8398V93.1519ZM89.0234 94.7559V93.1519H91.207V94.7559H89.0234ZM91.207 91.1519H89.0234V89.5474H91.207V91.1519ZM87.0234 89.5474V91.1519H84.8398V89.5474H87.0234Z" fill="#005FAE"/>
<path d="M64.1807 85.8823C66.625 85.8823 68.6133 83.894 68.6133 81.4497C68.6133 79.0054 66.625 77.0171 64.1807 77.0171C61.7363 77.0171 59.748 79.0054 59.748 81.4497C59.748 83.894 61.7363 85.8823 64.1807 85.8823ZM64.1807 79.0171C65.522 79.0171 66.6133 80.1084 66.6133 81.4497C66.6133 82.791 65.522 83.8823 64.1807 83.8823C62.8394 83.8823 61.748 82.791 61.748 81.4497C61.748 80.1084 62.8394 79.0171 64.1807 79.0171Z" fill="#005FAE"/>
<path d="M104.111 101.507H99.5059V99.3973C99.506 99.3913 99.5093 99.3864 99.5093 99.3804C99.5093 99.3744 99.506 99.3694 99.5059 99.3635V81.5015H104C104.426 81.5015 104.805 81.2314 104.944 80.8286C105.084 80.4258 104.953 79.979 104.618 79.7158L86.3623 65.3481C86.1861 65.209 85.9678 65.1338 85.7437 65.1338H64.1471C64.1378 65.1338 64.1288 65.1376 64.1195 65.1379C64.0195 65.1406 63.9221 65.1553 63.8305 65.1859C63.8048 65.1944 63.7826 65.2119 63.7575 65.2225C63.6832 65.2543 63.611 65.289 63.5468 65.3373C63.5405 65.3419 63.533 65.3433 63.5269 65.3481L45.271 79.7158C44.9365 79.979 44.8052 80.4258 44.9448 80.8286C45.084 81.2314 45.4634 81.5015 45.8897 81.5015H50.377V101.507H45.8897C45.3374 101.507 44.8897 101.955 44.8897 102.507C44.8897 103.06 45.3374 103.507 45.8897 103.507H51.377H59.7526C59.7586 103.507 59.7636 103.511 59.7695 103.511H68.5894C68.5954 103.511 68.6003 103.507 68.6063 103.507H76.9072H98.5059H104.111C104.663 103.507 105.111 103.06 105.111 102.507C105.111 101.955 104.663 101.507 104.111 101.507ZM97.5059 98.3804H77.9072V81.5015H82.4009H97.5059V98.3804ZM85.3975 67.1338L96.7423 76.0625H89.1929C88.6406 76.0625 88.1929 76.5103 88.1929 77.0625C88.1929 77.6147 88.6406 78.0625 89.1929 78.0625H99.0962C99.1491 78.0625 99.1946 78.0403 99.2453 78.0324L101.112 79.5015H98.5059H82.7473L75.563 73.8457L68.5559 68.3322L67.0332 67.1338H85.3975ZM48.7774 79.5015L64.1455 67.4062L69.439 71.5723L79.5135 79.5015H76.9072C76.355 79.5015 75.9072 79.9492 75.9072 80.5015V98.3804H69.5894V88.5508C69.5894 87.9985 69.1416 87.5508 68.5894 87.5508H59.7695C59.2173 87.5508 58.7695 87.9985 58.7695 88.5508V98.3804H52.377V80.5015C52.377 79.9492 51.9292 79.5015 51.377 79.5015H48.7774ZM60.7695 101.507V89.5508H67.5894V101.507H60.7695ZM69.5894 100.38H75.9072V101.507H69.5894V100.38ZM52.377 100.38H58.7695V101.507H52.377V100.38ZM77.9072 101.507V100.38H97.5059V101.507H77.9072Z" fill="#005FAE"/>
<path d="M85.291 78.0625H86.1294C86.6816 78.0625 87.1294 77.6147 87.1294 77.0625C87.1294 76.5103 86.6816 76.0625 86.1294 76.0625H85.291C84.7388 76.0625 84.291 76.5103 84.291 77.0625C84.291 77.6147 84.7388 78.0625 85.291 78.0625Z" fill="#005FAE"/>
<path d="M103.398 57.9209L101.352 57.1528C100.872 56.9731 100.476 56.4243 100.319 55.7207L99.7275 53.0664C99.6255 52.6094 99.2197 52.2842 98.7515 52.2842C98.2827 52.2842 97.8774 52.6094 97.7754 53.0669L97.1841 55.7207C97.0269 56.4238 96.6313 56.9731 96.1509 57.1533L94.105 57.9209C93.7144 58.0669 93.4561 58.4399 93.4561 58.8569C93.4561 59.2739 93.7144 59.647 94.105 59.793L96.1509 60.561C96.6313 60.7407 97.0269 61.29 97.1841 61.9927L97.7754 64.647C97.8774 65.1045 98.2827 65.4297 98.7515 65.4297C99.2197 65.4297 99.6255 65.1045 99.7275 64.6475L100.319 61.9927C100.476 61.2896 100.872 60.7407 101.352 60.5605L103.398 59.793C103.789 59.647 104.047 59.2739 104.047 58.8569C104.047 58.4399 103.789 58.0669 103.398 57.9209ZM98.7515 60.4727C98.3931 59.7622 97.8643 59.1978 97.2261 58.8569C97.8643 58.5161 98.3931 57.9517 98.7515 57.2412C99.1099 57.9517 99.6387 58.5161 100.277 58.8569C99.6387 59.1982 99.1099 59.7622 98.7515 60.4727Z" fill="#005FAE"/>
<path d="M53.8389 60.5039C53.3584 60.3232 52.9629 59.7744 52.8062 59.0718L52.2148 56.4175C52.1128 55.96 51.7075 55.6348 51.2388 55.6348C50.7705 55.6348 50.3647 55.96 50.2627 56.417L49.6709 59.0718C49.5142 59.7744 49.1187 60.3232 48.6382 60.5039L46.5923 61.2715C46.2017 61.4175 45.9434 61.791 45.9434 62.2075C45.9434 62.6245 46.2021 62.9976 46.5923 63.144L48.6382 63.9106C49.1187 64.0913 49.5142 64.6401 49.6709 65.3433L50.2627 67.9976C50.3647 68.4546 50.7705 68.7798 51.2388 68.7798C51.7075 68.7798 52.1128 68.4546 52.2148 67.9971L52.8062 65.3428C52.9629 64.6401 53.3584 64.0913 53.8389 63.9111L55.8848 63.144C56.2749 62.9976 56.5337 62.6245 56.5337 62.2075C56.5337 61.791 56.2754 61.4175 55.8848 61.2715L53.8389 60.5039ZM51.2383 63.8223C50.8804 63.1123 50.3521 62.5483 49.7134 62.2075C50.3521 61.8662 50.8804 61.3022 51.2388 60.5923C51.5967 61.3022 52.1255 61.8662 52.7637 62.207C52.125 62.5483 51.5967 63.1123 51.2383 63.8223Z" fill="#005FAE"/>
<path d="M73.3057 49.3584C72.8252 49.1777 72.4297 48.6289 72.2729 47.9263L71.6816 45.272C71.5796 44.8145 71.1743 44.4893 70.7056 44.4893C70.2373 44.4893 69.8315 44.8145 69.7295 45.2715L69.1377 47.9263C68.981 48.6289 68.5854 49.1777 68.105 49.3584L66.0591 50.126C65.6685 50.272 65.4102 50.645 65.4102 51.062C65.4102 51.479 65.6685 51.8521 66.0591 51.998L68.105 52.7656C68.5854 52.9463 68.981 53.4951 69.1377 54.1982L69.7295 56.8525C69.8315 57.3096 70.2373 57.6348 70.7056 57.6348C71.1743 57.6348 71.5796 57.3096 71.6816 56.8521L72.2729 54.1978C72.4297 53.4951 72.8252 52.9463 73.3057 52.7661L75.3521 51.9985C75.7427 51.8521 76.001 51.479 76.001 51.062C76.001 50.645 75.7427 50.272 75.3521 50.1255L73.3057 49.3584ZM70.7056 52.6772C70.3472 51.9673 69.8184 51.4033 69.1797 51.062C69.8184 50.7207 70.3472 50.1567 70.7056 49.4468C71.0635 50.1567 71.5923 50.7207 72.231 51.062C71.5923 51.4033 71.0635 51.9673 70.7056 52.6772Z" fill="#005FAE"/>
</svg>
